<mxfile host="app.diagrams.net" modified="2022-12-23T13:45:33.327Z" agent="5.0 (Windows NT 10.0; Win64; x64) AppleWebKit/537.36 (KHTML, like Gecko) Chrome/108.0.0.0 Safari/537.36" etag="uitdKAhSMg4v9xL72DaD" version="20.7.4" type="github">
  <diagram id="yPioGlbf1egiHgOzMyCI" name="Страница 1">
    <mxGraphModel dx="2603" dy="764" grid="1" gridSize="10" guides="1" tooltips="1" connect="1" arrows="1" fold="1" page="1" pageScale="1" pageWidth="1169" pageHeight="827" math="0" shadow="0">
      <root>
        <mxCell id="0" />
        <mxCell id="1" parent="0" />
        <mxCell id="tqQ_XBrtrxOzAc27pRGp-2" value="" style="shape=umlActor;verticalLabelPosition=bottom;verticalAlign=top;html=1;" parent="1" vertex="1">
          <mxGeometry width="40" height="80" as="geometry" />
        </mxCell>
        <mxCell id="tqQ_XBrtrxOzAc27pRGp-3" value="Менеджер по работе с клиентами" style="shape=umlLifeline;perimeter=lifelinePerimeter;whiteSpace=wrap;html=1;container=1;collapsible=0;recursiveResize=0;outlineConnect=0;" parent="1" vertex="1">
          <mxGeometry x="-40" y="80" width="120" height="840" as="geometry" />
        </mxCell>
        <mxCell id="tqQ_XBrtrxOzAc27pRGp-10" value="" style="html=1;points=[];perimeter=orthogonalPerimeter;fontSize=14;fillColor=#60a917;strokeColor=#2D7600;fontColor=#ffffff;" parent="tqQ_XBrtrxOzAc27pRGp-3" vertex="1">
          <mxGeometry x="55" y="80" width="10" height="80" as="geometry" />
        </mxCell>
        <mxCell id="tqQ_XBrtrxOzAc27pRGp-19" value="" style="html=1;points=[];perimeter=orthogonalPerimeter;fontSize=14;fillColor=#60a917;strokeColor=#2D7600;fontColor=#ffffff;" parent="tqQ_XBrtrxOzAc27pRGp-3" vertex="1">
          <mxGeometry x="55" y="200" width="10" height="320" as="geometry" />
        </mxCell>
        <mxCell id="tqQ_XBrtrxOzAc27pRGp-42" value="" style="html=1;points=[];perimeter=orthogonalPerimeter;fontSize=14;fillColor=#60a917;fontColor=#ffffff;strokeColor=#2D7600;" parent="tqQ_XBrtrxOzAc27pRGp-3" vertex="1">
          <mxGeometry x="55" y="630" width="10" height="170" as="geometry" />
        </mxCell>
        <mxCell id="tqQ_XBrtrxOzAc27pRGp-4" value="Параметры работы с заказом" style="shape=umlLifeline;perimeter=lifelinePerimeter;whiteSpace=wrap;html=1;container=1;collapsible=0;recursiveResize=0;outlineConnect=0;fontSize=14;size=50;" parent="1" vertex="1">
          <mxGeometry x="200" y="80" width="120" height="840" as="geometry" />
        </mxCell>
        <mxCell id="tqQ_XBrtrxOzAc27pRGp-13" value="" style="html=1;points=[];perimeter=orthogonalPerimeter;fontSize=14;fillColor=#60a917;strokeColor=#2D7600;fontColor=#ffffff;" parent="tqQ_XBrtrxOzAc27pRGp-4" vertex="1">
          <mxGeometry x="55" y="80" width="10" height="80" as="geometry" />
        </mxCell>
        <mxCell id="tqQ_XBrtrxOzAc27pRGp-18" value="2. Проверка &lt;br&gt;пароля" style="html=1;verticalAlign=bottom;endArrow=block;rounded=0;fontSize=14;endSize=14;exitX=1;exitY=0.14;exitDx=0;exitDy=0;exitPerimeter=0;align=left;" parent="tqQ_XBrtrxOzAc27pRGp-4" source="tqQ_XBrtrxOzAc27pRGp-13" target="tqQ_XBrtrxOzAc27pRGp-13" edge="1">
          <mxGeometry x="0.2998" y="10" width="80" relative="1" as="geometry">
            <mxPoint x="460" y="260" as="sourcePoint" />
            <mxPoint x="540" y="260" as="targetPoint" />
            <Array as="points">
              <mxPoint x="100" y="90" />
            </Array>
            <mxPoint as="offset" />
          </mxGeometry>
        </mxCell>
        <mxCell id="tqQ_XBrtrxOzAc27pRGp-20" value="" style="html=1;points=[];perimeter=orthogonalPerimeter;fontSize=14;fillColor=#60a917;fontColor=#ffffff;strokeColor=#2D7600;" parent="tqQ_XBrtrxOzAc27pRGp-4" vertex="1">
          <mxGeometry x="55" y="200" width="10" height="150" as="geometry" />
        </mxCell>
        <mxCell id="tqQ_XBrtrxOzAc27pRGp-5" value="Добавление нового заказа" style="shape=umlLifeline;perimeter=lifelinePerimeter;whiteSpace=wrap;html=1;container=1;collapsible=0;recursiveResize=0;outlineConnect=0;fontSize=14;" parent="1" vertex="1">
          <mxGeometry x="440" y="80" width="120" height="840" as="geometry" />
        </mxCell>
        <mxCell id="tqQ_XBrtrxOzAc27pRGp-22" value="" style="html=1;points=[];perimeter=orthogonalPerimeter;fontSize=14;fillColor=#60a917;fontColor=#ffffff;strokeColor=#2D7600;" parent="tqQ_XBrtrxOzAc27pRGp-5" vertex="1">
          <mxGeometry x="55" y="220" width="10" height="110" as="geometry" />
        </mxCell>
        <mxCell id="tqQ_XBrtrxOzAc27pRGp-32" value="" style="html=1;points=[];perimeter=orthogonalPerimeter;fontSize=14;fillColor=#60a917;fontColor=#ffffff;strokeColor=#2D7600;" parent="tqQ_XBrtrxOzAc27pRGp-5" vertex="1">
          <mxGeometry x="55" y="380.63" width="10" height="78.75" as="geometry" />
        </mxCell>
        <mxCell id="tqQ_XBrtrxOzAc27pRGp-34" value="9.&amp;nbsp; Отображение&amp;nbsp;&lt;br&gt;списка клиентов" style="html=1;verticalAlign=bottom;endArrow=block;rounded=0;fontSize=14;endSize=14;align=left;exitX=1.6;exitY=0.261;exitDx=0;exitDy=0;exitPerimeter=0;" parent="tqQ_XBrtrxOzAc27pRGp-5" source="tqQ_XBrtrxOzAc27pRGp-32" target="tqQ_XBrtrxOzAc27pRGp-32" edge="1">
          <mxGeometry width="80" relative="1" as="geometry">
            <mxPoint x="120" y="310" as="sourcePoint" />
            <mxPoint x="-95" y="130" as="targetPoint" />
            <Array as="points">
              <mxPoint x="100" y="400" />
            </Array>
          </mxGeometry>
        </mxCell>
        <mxCell id="tqQ_XBrtrxOzAc27pRGp-35" value="" style="html=1;points=[];perimeter=orthogonalPerimeter;fontSize=14;fillColor=#60a917;fontColor=#ffffff;strokeColor=#2D7600;" parent="tqQ_XBrtrxOzAc27pRGp-5" vertex="1">
          <mxGeometry x="55" y="520" width="10" height="50" as="geometry" />
        </mxCell>
        <mxCell id="tqQ_XBrtrxOzAc27pRGp-24" value="5. Добавление нового заказа" style="html=1;verticalAlign=bottom;startArrow=none;startFill=0;endArrow=open;rounded=0;fontSize=14;" parent="tqQ_XBrtrxOzAc27pRGp-5" edge="1">
          <mxGeometry width="80" relative="1" as="geometry">
            <mxPoint x="-415" y="320" as="sourcePoint" />
            <mxPoint x="55" y="320" as="targetPoint" />
          </mxGeometry>
        </mxCell>
        <mxCell id="tqQ_XBrtrxOzAc27pRGp-6" value="Менеджер по работе с заказами" style="shape=umlLifeline;perimeter=lifelinePerimeter;whiteSpace=wrap;html=1;container=1;collapsible=0;recursiveResize=0;outlineConnect=0;fontSize=14;size=50;" parent="1" vertex="1">
          <mxGeometry x="680" y="80" width="120" height="840" as="geometry" />
        </mxCell>
        <mxCell id="tqQ_XBrtrxOzAc27pRGp-26" value="" style="html=1;points=[];perimeter=orthogonalPerimeter;fontSize=14;fillColor=#60a917;fontColor=#ffffff;strokeColor=#2D7600;" parent="tqQ_XBrtrxOzAc27pRGp-6" vertex="1">
          <mxGeometry x="55" y="260" width="10" height="45" as="geometry" />
        </mxCell>
        <mxCell id="tqQ_XBrtrxOzAc27pRGp-30" value="" style="html=1;points=[];perimeter=orthogonalPerimeter;fontSize=14;fillColor=#60a917;fontColor=#ffffff;strokeColor=#2D7600;" parent="tqQ_XBrtrxOzAc27pRGp-6" vertex="1">
          <mxGeometry x="55" y="320" width="10" height="240" as="geometry" />
        </mxCell>
        <mxCell id="tqQ_XBrtrxOzAc27pRGp-40" value="" style="html=1;points=[];perimeter=orthogonalPerimeter;fontSize=14;fillColor=#60a917;fontColor=#ffffff;strokeColor=#2D7600;" parent="tqQ_XBrtrxOzAc27pRGp-6" vertex="1">
          <mxGeometry x="55" y="590" width="10" height="150" as="geometry" />
        </mxCell>
        <mxCell id="tqQ_XBrtrxOzAc27pRGp-43" value="14. Отображение списка&lt;br&gt;&lt;div style=&quot;text-align: right;&quot;&gt;комплектующих&lt;/div&gt;" style="html=1;verticalAlign=bottom;endArrow=block;rounded=0;fontSize=14;endSize=14;align=left;exitX=1.3;exitY=0.186;exitDx=0;exitDy=0;exitPerimeter=0;" parent="tqQ_XBrtrxOzAc27pRGp-6" source="tqQ_XBrtrxOzAc27pRGp-40" target="tqQ_XBrtrxOzAc27pRGp-40" edge="1">
          <mxGeometry x="0.7062" y="-10" width="80" relative="1" as="geometry">
            <mxPoint x="-89" y="401.80375000000004" as="sourcePoint" />
            <mxPoint x="130" y="680" as="targetPoint" />
            <mxPoint as="offset" />
            <Array as="points">
              <mxPoint x="90" y="630" />
              <mxPoint x="90" y="680" />
            </Array>
          </mxGeometry>
        </mxCell>
        <mxCell id="tqQ_XBrtrxOzAc27pRGp-7" value="Заказ" style="shape=umlLifeline;perimeter=lifelinePerimeter;whiteSpace=wrap;html=1;container=1;collapsible=0;recursiveResize=0;outlineConnect=0;fontSize=14;" parent="1" vertex="1">
          <mxGeometry x="880" y="80" width="80" height="840" as="geometry" />
        </mxCell>
        <mxCell id="tqQ_XBrtrxOzAc27pRGp-49" value="" style="html=1;points=[];perimeter=orthogonalPerimeter;fontSize=14;fillColor=#60a917;fontColor=#ffffff;strokeColor=#2D7600;" parent="tqQ_XBrtrxOzAc27pRGp-7" vertex="1">
          <mxGeometry x="35" y="700" width="10" height="40" as="geometry" />
        </mxCell>
        <mxCell id="tqQ_XBrtrxOzAc27pRGp-52" value="" style="html=1;points=[];perimeter=orthogonalPerimeter;fontSize=14;fillColor=#60a917;fontColor=#ffffff;strokeColor=#2D7600;" parent="tqQ_XBrtrxOzAc27pRGp-7" vertex="1">
          <mxGeometry x="35" y="770" width="10" height="63" as="geometry" />
        </mxCell>
        <mxCell id="tqQ_XBrtrxOzAc27pRGp-8" value="Клиент" style="shape=umlLifeline;perimeter=lifelinePerimeter;whiteSpace=wrap;html=1;container=1;collapsible=0;recursiveResize=0;outlineConnect=0;fontSize=14;" parent="1" vertex="1">
          <mxGeometry x="1040" y="80" width="80" height="840" as="geometry" />
        </mxCell>
        <mxCell id="tqQ_XBrtrxOzAc27pRGp-28" value="" style="html=1;points=[];perimeter=orthogonalPerimeter;fontSize=14;fillColor=#60a917;fontColor=#ffffff;strokeColor=#2D7600;" parent="tqQ_XBrtrxOzAc27pRGp-8" vertex="1">
          <mxGeometry x="35" y="309.38" width="10" height="150" as="geometry" />
        </mxCell>
        <mxCell id="tqQ_XBrtrxOzAc27pRGp-53" value="" style="html=1;points=[];perimeter=orthogonalPerimeter;fontSize=14;fillColor=#60a917;fontColor=#ffffff;strokeColor=#2D7600;" parent="tqQ_XBrtrxOzAc27pRGp-8" vertex="1">
          <mxGeometry x="35" y="770" width="10" height="30" as="geometry" />
        </mxCell>
        <mxCell id="tqQ_XBrtrxOzAc27pRGp-9" value="Комплектующее изделие" style="shape=umlLifeline;perimeter=lifelinePerimeter;whiteSpace=wrap;html=1;container=1;collapsible=0;recursiveResize=0;outlineConnect=0;fontSize=14;" parent="1" vertex="1">
          <mxGeometry x="1200" y="80" width="120" height="840" as="geometry" />
        </mxCell>
        <mxCell id="tqQ_XBrtrxOzAc27pRGp-38" value="" style="html=1;points=[];perimeter=orthogonalPerimeter;fontSize=14;fillColor=#60a917;fontColor=#ffffff;strokeColor=#2D7600;" parent="tqQ_XBrtrxOzAc27pRGp-9" vertex="1">
          <mxGeometry x="55" y="495" width="10" height="100" as="geometry" />
        </mxCell>
        <mxCell id="tqQ_XBrtrxOzAc27pRGp-17" value="1. Ввод пароля" style="html=1;verticalAlign=bottom;startArrow=none;startFill=0;endArrow=open;rounded=0;fontSize=14;entryX=0;entryY=0;entryDx=0;entryDy=0;entryPerimeter=0;" parent="1" source="tqQ_XBrtrxOzAc27pRGp-3" target="tqQ_XBrtrxOzAc27pRGp-13" edge="1">
          <mxGeometry width="80" relative="1" as="geometry">
            <mxPoint x="660" y="340" as="sourcePoint" />
            <mxPoint x="180" y="250" as="targetPoint" />
          </mxGeometry>
        </mxCell>
        <mxCell id="tqQ_XBrtrxOzAc27pRGp-21" value="3. Выбор операции&lt;br&gt;&quot;Добавить заказ&quot;" style="html=1;verticalAlign=bottom;startArrow=none;startFill=0;endArrow=open;rounded=0;fontSize=14;exitX=0.5;exitY=0;exitDx=0;exitDy=0;exitPerimeter=0;entryX=0.3;entryY=-0.007;entryDx=0;entryDy=0;entryPerimeter=0;" parent="1" source="tqQ_XBrtrxOzAc27pRGp-19" target="tqQ_XBrtrxOzAc27pRGp-20" edge="1">
          <mxGeometry width="80" relative="1" as="geometry">
            <mxPoint x="30" y="271" as="sourcePoint" />
            <mxPoint x="250" y="270" as="targetPoint" />
          </mxGeometry>
        </mxCell>
        <mxCell id="tqQ_XBrtrxOzAc27pRGp-23" value="4. Отображение&amp;nbsp;&lt;br&gt;полей ввода" style="html=1;verticalAlign=bottom;startArrow=none;startFill=0;endArrow=open;rounded=0;fontSize=14;entryX=-0.1;entryY=0.2;entryDx=0;entryDy=0;entryPerimeter=0;exitX=1;exitY=0.267;exitDx=0;exitDy=0;exitPerimeter=0;" parent="1" source="tqQ_XBrtrxOzAc27pRGp-20" target="tqQ_XBrtrxOzAc27pRGp-22" edge="1">
          <mxGeometry width="80" relative="1" as="geometry">
            <mxPoint x="340" y="350" as="sourcePoint" />
            <mxPoint x="258" y="282" as="targetPoint" />
          </mxGeometry>
        </mxCell>
        <mxCell id="tqQ_XBrtrxOzAc27pRGp-27" value="6. Получение списка&lt;br&gt;клиентов" style="html=1;verticalAlign=bottom;startArrow=none;startFill=0;endArrow=open;rounded=0;fontSize=14;exitX=0.9;exitY=0.355;exitDx=0;exitDy=0;exitPerimeter=0;entryX=0;entryY=0.078;entryDx=0;entryDy=0;entryPerimeter=0;" parent="1" source="tqQ_XBrtrxOzAc27pRGp-22" target="tqQ_XBrtrxOzAc27pRGp-26" edge="1">
          <mxGeometry x="0.0086" y="8" width="80" relative="1" as="geometry">
            <mxPoint x="87" y="389.1199999999999" as="sourcePoint" />
            <mxPoint x="415" y="387.99" as="targetPoint" />
            <mxPoint as="offset" />
          </mxGeometry>
        </mxCell>
        <mxCell id="tqQ_XBrtrxOzAc27pRGp-29" value="7. Получение списка &lt;br&gt;клиентов" style="html=1;verticalAlign=bottom;startArrow=none;startFill=0;endArrow=open;rounded=0;fontSize=14;entryX=0;entryY=0.077;entryDx=0;entryDy=0;entryPerimeter=0;" parent="1" target="tqQ_XBrtrxOzAc27pRGp-28" edge="1">
          <mxGeometry x="-0.0065" y="6" width="80" relative="1" as="geometry">
            <mxPoint x="740" y="400" as="sourcePoint" />
            <mxPoint x="415" y="387.99" as="targetPoint" />
            <mxPoint as="offset" />
          </mxGeometry>
        </mxCell>
        <mxCell id="tqQ_XBrtrxOzAc27pRGp-33" value="8. Список клиентов" style="html=1;verticalAlign=bottom;startArrow=none;startFill=0;endArrow=open;rounded=0;fontSize=14;dashed=1;entryX=1.1;entryY=0.012;entryDx=0;entryDy=0;entryPerimeter=0;" parent="1" source="tqQ_XBrtrxOzAc27pRGp-8" target="tqQ_XBrtrxOzAc27pRGp-32" edge="1">
          <mxGeometry x="-0.0128" width="80" relative="1" as="geometry">
            <mxPoint x="660" y="560" as="sourcePoint" />
            <mxPoint x="490" y="500" as="targetPoint" />
            <mxPoint as="offset" />
          </mxGeometry>
        </mxCell>
        <mxCell id="tqQ_XBrtrxOzAc27pRGp-36" value="10. Выбор клиента" style="html=1;verticalAlign=bottom;startArrow=none;startFill=0;endArrow=open;rounded=0;fontSize=14;entryX=0;entryY=0.271;entryDx=0;entryDy=0;entryPerimeter=0;" parent="1" target="tqQ_XBrtrxOzAc27pRGp-32" edge="1">
          <mxGeometry width="80" relative="1" as="geometry">
            <mxPoint x="20" y="480" as="sourcePoint" />
            <mxPoint x="350" y="530" as="targetPoint" />
          </mxGeometry>
        </mxCell>
        <mxCell id="tqQ_XBrtrxOzAc27pRGp-37" value="11. Получение&lt;br&gt;списка&lt;br&gt;комплектующих" style="html=1;verticalAlign=bottom;startArrow=none;startFill=0;endArrow=open;rounded=0;fontSize=14;exitX=0.4;exitY=0.02;exitDx=0;exitDy=0;exitPerimeter=0;entryX=-0.1;entryY=0.833;entryDx=0;entryDy=0;entryPerimeter=0;" parent="1" source="tqQ_XBrtrxOzAc27pRGp-35" target="tqQ_XBrtrxOzAc27pRGp-30" edge="1">
          <mxGeometry width="80" relative="1" as="geometry">
            <mxPoint x="87" y="488" as="sourcePoint" />
            <mxPoint x="416" y="491.9625000000001" as="targetPoint" />
          </mxGeometry>
        </mxCell>
        <mxCell id="tqQ_XBrtrxOzAc27pRGp-39" value="12. Получение списка комплектующих" style="html=1;verticalAlign=bottom;startArrow=none;startFill=0;endArrow=open;rounded=0;fontSize=14;exitX=1.2;exitY=0.729;exitDx=0;exitDy=0;exitPerimeter=0;entryX=-0.1;entryY=0;entryDx=0;entryDy=0;entryPerimeter=0;" parent="1" source="tqQ_XBrtrxOzAc27pRGp-30" target="tqQ_XBrtrxOzAc27pRGp-38" edge="1">
          <mxGeometry width="80" relative="1" as="geometry">
            <mxPoint x="419" y="571" as="sourcePoint" />
            <mxPoint x="574" y="571.04" as="targetPoint" />
          </mxGeometry>
        </mxCell>
        <mxCell id="tqQ_XBrtrxOzAc27pRGp-41" value="13. Список комплектующих" style="html=1;verticalAlign=bottom;startArrow=none;startFill=0;endArrow=open;rounded=0;fontSize=14;exitX=0;exitY=0.99;exitDx=0;exitDy=0;exitPerimeter=0;dashed=1;" parent="1" source="tqQ_XBrtrxOzAc27pRGp-38" edge="1">
          <mxGeometry x="-0.0128" width="80" relative="1" as="geometry">
            <mxPoint x="892" y="458.95000000000005" as="sourcePoint" />
            <mxPoint x="740" y="670" as="targetPoint" />
            <mxPoint as="offset" />
          </mxGeometry>
        </mxCell>
        <mxCell id="tqQ_XBrtrxOzAc27pRGp-44" value="15. Выбор комплектующих" style="html=1;verticalAlign=bottom;startArrow=none;startFill=0;endArrow=open;rounded=0;fontSize=14;entryX=-0.4;entryY=0.292;entryDx=0;entryDy=0;entryPerimeter=0;" parent="1" target="tqQ_XBrtrxOzAc27pRGp-40" edge="1">
          <mxGeometry width="80" relative="1" as="geometry">
            <mxPoint x="20" y="710" as="sourcePoint" />
            <mxPoint x="416" y="491.9625000000001" as="targetPoint" />
          </mxGeometry>
        </mxCell>
        <mxCell id="tqQ_XBrtrxOzAc27pRGp-45" value="16. Сохранить заказ" style="html=1;verticalAlign=bottom;startArrow=none;startFill=0;endArrow=open;rounded=0;fontSize=14;entryX=0.1;entryY=0.7;entryDx=0;entryDy=0;entryPerimeter=0;exitX=0.5;exitY=0.382;exitDx=0;exitDy=0;exitPerimeter=0;" parent="1" source="tqQ_XBrtrxOzAc27pRGp-42" target="tqQ_XBrtrxOzAc27pRGp-40" edge="1">
          <mxGeometry width="80" relative="1" as="geometry">
            <mxPoint x="30" y="775" as="sourcePoint" />
            <mxPoint x="571" y="715.04" as="targetPoint" />
          </mxGeometry>
        </mxCell>
        <mxCell id="tqQ_XBrtrxOzAc27pRGp-50" value="17. Передача&amp;nbsp;&lt;br&gt;управления" style="html=1;verticalAlign=bottom;startArrow=none;startFill=0;endArrow=open;rounded=0;fontSize=14;exitX=1.476;exitY=0.901;exitDx=0;exitDy=0;exitPerimeter=0;entryX=-0.059;entryY=0.635;entryDx=0;entryDy=0;entryPerimeter=0;" parent="1" source="tqQ_XBrtrxOzAc27pRGp-40" target="tqQ_XBrtrxOzAc27pRGp-49" edge="1">
          <mxGeometry width="80" relative="1" as="geometry">
            <mxPoint x="85" y="765.05" as="sourcePoint" />
            <mxPoint x="910" y="805" as="targetPoint" />
          </mxGeometry>
        </mxCell>
        <mxCell id="tqQ_XBrtrxOzAc27pRGp-54" value="18. Сохранение" style="html=1;verticalAlign=bottom;startArrow=none;startFill=0;endArrow=open;rounded=0;fontSize=14;exitX=0.771;exitY=-0.016;exitDx=0;exitDy=0;exitPerimeter=0;entryX=-0.288;entryY=0.045;entryDx=0;entryDy=0;entryPerimeter=0;" parent="1" source="tqQ_XBrtrxOzAc27pRGp-52" target="tqQ_XBrtrxOzAc27pRGp-53" edge="1">
          <mxGeometry width="80" relative="1" as="geometry">
            <mxPoint x="589.7600000000002" y="797.1299999999999" as="sourcePoint" />
            <mxPoint x="733.29" y="804.2499999999998" as="targetPoint" />
          </mxGeometry>
        </mxCell>
      </root>
    </mxGraphModel>
  </diagram>
</mxfile>
